<svg width="38" height="38" viewBox="0 0 38 38" fill="none" xmlns="http://www.w3.org/2000/svg">
<path d="M21.375 8.70833L10.2175 19.8658C9.86167 20.2216 9.68374 20.3996 9.57048 20.6196C9.45723 20.8397 9.41586 21.0879 9.33313 21.5843L8.09883 28.9901C8.01577 29.4885 7.97424 29.7376 8.11828 29.8817C8.26232 30.0257 8.5115 29.9842 9.00986 29.9011H9.00988L16.4156 28.6668C16.9121 28.5841 17.1603 28.5427 17.3803 28.4295C17.6004 28.3162 17.7783 28.1383 18.1342 27.7824L29.2916 16.625C30.902 15.0147 31.7071 14.2095 31.8858 13.2411C31.9558 12.8613 31.9558 12.472 31.8858 12.0923C31.7071 11.1238 30.902 10.3187 29.2916 8.70833C27.6813 7.098 26.8761 6.29283 25.9077 6.1142C25.528 6.04417 25.1386 6.04417 24.7589 6.1142C23.7905 6.29283 22.9853 7.098 21.375 8.70833Z" fill="#7E869E" fill-opacity="0.25"/>
<path d="M19.4637 10.6196L10.2175 19.8658L10.2175 19.8658C9.86167 20.2216 9.68374 20.3996 9.57048 20.6196C9.45723 20.8397 9.41586 21.0879 9.33313 21.5843L8.09883 28.9901C8.01577 29.4885 7.97424 29.7376 8.11828 29.8817C8.26232 30.0257 8.5115 29.9842 9.00986 29.9011H9.00988L16.4156 28.6668C16.9121 28.5841 17.1603 28.5427 17.3803 28.4295C17.6004 28.3162 17.7783 28.1383 18.1342 27.7824L27.3804 18.5363C27.9082 18.0085 28.172 17.7446 28.172 17.4167C28.172 17.0887 27.9082 16.8249 27.3804 16.2971L21.7029 10.6196C21.1751 10.0918 20.9112 9.82792 20.5833 9.82792C20.2554 9.82792 19.9915 10.0918 19.4637 10.6196Z" fill="#222222"/>
</svg>
