<svg width="34" height="10" viewBox="0 0 34 10" fill="none" xmlns="http://www.w3.org/2000/svg">
<path d="M10 5.00002C10 7.76144 7.76142 10 5 10C2.23858 10 0 7.76144 0 5.00002C0 2.23859 2.23858 1.85131e-05 5 1.85131e-05C7.76142 1.85131e-05 10 2.23859 10 5.00002Z" fill="#232121"/>
<path d="M34 5C34 7.76142 31.7614 10 29 10C26.2386 10 24 7.76142 24 5C24 2.23858 26.2386 0 29 0C31.7614 0 34 2.23858 34 5Z" fill="#232121"/>
<path d="M22 5.00002C22 7.76144 19.7614 10 17 10C14.2386 10 12 7.76144 12 5.00002C12 2.23859 14.2386 1.85131e-05 17 1.85131e-05C19.7614 1.85131e-05 22 2.23859 22 5.00002Z" fill="#232121"/>
</svg>
