<svg width="39" height="38" viewBox="0 0 39 38" fill="none" xmlns="http://www.w3.org/2000/svg">
<path fill-rule="evenodd" clip-rule="evenodd" d="M25.7578 12.8789C25.7578 19.9917 19.9917 25.7578 12.8789 25.7578C5.76607 25.7578 0 19.9917 0 12.8789C0 5.76607 5.76607 0 12.8789 0C19.9917 0 25.7578 5.76607 25.7578 12.8789ZM19.7578 12.8789C19.7578 16.678 16.678 19.7578 12.8789 19.7578C9.07978 19.7578 6 16.678 6 12.8789C6 9.07978 9.07978 6 12.8789 6C16.678 6 19.7578 9.07978 19.7578 12.8789Z" fill="#D9D9D9"/>
<path d="M25.3119 20.8119L21.0693 25.0545L33.8356 37.8208L38.0782 33.5781L25.3119 20.8119Z" fill="#D9D9D9"/>
</svg>
